<?xml version="1.0" encoding="UTF-8" standalone="no"?>
<!-- Created with Inkscape (http://www.inkscape.org/) -->

<svg
   width="120.04736"
   height="120.26224"
   viewBox="0 0 120.04737 120.26223"
   version="1.1"
   id="svg1"
   inkscape:export-filename="bitmapa.svg"
   inkscape:export-xdpi="96"
   inkscape:export-ydpi="96"
   sodipodi:docname="logo_mediapress_bk.svg"
   xmlns:inkscape="http://www.inkscape.org/namespaces/inkscape"
   xmlns:sodipodi="http://sodipodi.sourceforge.net/DTD/sodipodi-0.dtd"
   xmlns="http://www.w3.org/2000/svg"
   xmlns:svg="http://www.w3.org/2000/svg">
  <sodipodi:namedview
     id="namedview1"
     pagecolor="#ffffff"
     bordercolor="#000000"
     borderopacity="0.25"
     inkscape:showpageshadow="2"
     inkscape:pageopacity="0.0"
     inkscape:pagecheckerboard="0"
     inkscape:deskcolor="#d1d1d1"
     inkscape:document-units="px" />
  <defs
     id="defs1">
    <clipPath
       clipPathUnits="userSpaceOnUse"
       id="clipPath12">
      <path
         d="M 0,841.89 H 595.276 V 0 H 0 Z"
         id="path12" />
    </clipPath>
    <clipPath
       clipPathUnits="userSpaceOnUse"
       id="clipPath14">
      <path
         d="M 0,841.89 H 595.276 V 0 H 0 Z"
         transform="translate(-226.01851,-491.39401)"
         id="path14" />
    </clipPath>
    <clipPath
       clipPathUnits="userSpaceOnUse"
       id="clipPath16">
      <path
         d="M 0,841.89 H 595.276 V 0 H 0 Z"
         transform="translate(-235.0381,-491.39401)"
         id="path16" />
    </clipPath>
    <clipPath
       clipPathUnits="userSpaceOnUse"
       id="clipPath18">
      <path
         d="M 0,841.89 H 595.276 V 0 H 0 Z"
         transform="translate(-311.02231,-501.44171)"
         id="path18" />
    </clipPath>
    <clipPath
       clipPathUnits="userSpaceOnUse"
       id="clipPath20">
      <path
         d="M 0,841.89 H 595.276 V 0 H 0 Z"
         transform="translate(-302.47911,-506.14351)"
         id="path20" />
    </clipPath>
  </defs>
  <g
     inkscape:label="Vrstva 1"
     inkscape:groupmode="layer"
     id="layer1"
     transform="translate(0.19346386,-0.15309799)">
    <path
       id="path11"
       d="M 404.774,369.726 H 180.472 v 196.947 h 224.302 z"
       style="fill:#000000;fill-opacity:1;fill-rule:nonzero;stroke:none"
       transform="matrix(0.53520411,0,0,-0.61063252,-96.78282,346.18206)"
       clip-path="url(#clipPath12)" />
    <path
       id="path13"
       d="m 0,0 c 0,-36.785 29.82,-66.605 66.605,-66.605 36.785,0 66.605,29.82 66.605,66.605 0,36.785 -29.82,66.605 -66.605,66.605 C 29.82,66.605 0,36.785 0,0"
       style="fill:#000000;fill-opacity:1;fill-rule:nonzero;stroke:#ca0f0f;stroke-width:6;stroke-linecap:butt;stroke-linejoin:miter;stroke-miterlimit:10;stroke-dasharray:none;stroke-opacity:1"
       transform="matrix(0.83240788,0,0,-0.83240788,4.0178904,60.821197)"
       clip-path="url(#clipPath14)" />
    <path
       id="path15"
       d="m 0,0 c 0,-31.803 25.782,-57.585 57.585,-57.585 31.804,0 57.586,25.782 57.586,57.585 0,31.803 -25.782,57.585 -57.586,57.585 C 25.782,57.585 0,31.803 0,0"
       style="fill:#ca0f0f;fill-opacity:1;fill-rule:nonzero;stroke:none"
       transform="matrix(0.83240788,0,0,-0.83240788,11.525876,60.821197)"
       clip-path="url(#clipPath16)" />
    <path
       id="path17"
       d="m 0,0 c -0.782,0 -1.417,-0.634 -1.417,-1.417 v -8.851 c 0,-9.364 -7.618,-16.982 -16.982,-16.982 -9.364,0 -16.982,7.618 -16.982,16.982 v 8.851 c 0,0.783 -0.634,1.417 -1.417,1.417 -0.782,0 -1.416,-0.634 -1.416,-1.417 v -8.851 c 0,-10.45 8.131,-19.035 18.399,-19.764 v -7.354 h -7.328 c -0.782,0 -1.417,-0.634 -1.417,-1.416 0,-0.783 0.635,-1.417 1.417,-1.417 h 17.488 c 0.782,0 1.417,0.634 1.417,1.417 0,0.782 -0.634,1.416 -1.417,1.416 h -7.327 v 7.354 c 10.267,0.729 18.398,9.314 18.398,19.764 v 8.851 C 1.417,-0.634 0.782,0 0,0"
       style="fill:#000000;fill-opacity:1;fill-rule:nonzero;stroke:none"
       transform="matrix(0.83240788,0,0,-0.83240788,74.775727,52.457424)"
       clip-path="url(#clipPath18)" />
    <path
       id="path19"
       d="m 0,0 h -5.135 c -0.783,0 -1.417,-0.634 -1.417,-1.417 0,-0.782 0.634,-1.416 1.417,-1.416 H 0 v -3.944 h -5.135 c -0.783,0 -1.417,-0.634 -1.417,-1.416 0,-0.783 0.634,-1.417 1.417,-1.417 H 0 v -3.943 h -5.135 c -0.783,0 -1.417,-0.635 -1.417,-1.417 0,-0.782 0.634,-1.417 1.417,-1.417 h 5.122 c -0.246,-4.695 -4.143,-8.438 -8.899,-8.438 H -10.8 c -4.755,0 -8.652,3.743 -8.898,8.438 h 5.122 c 0.783,0 1.417,0.635 1.417,1.417 0,0.782 -0.634,1.417 -1.417,1.417 h -5.135 v 3.943 h 5.135 c 0.783,0 1.417,0.634 1.417,1.417 0,0.782 -0.634,1.416 -1.417,1.416 h -5.135 v 3.944 h 5.135 c 0.783,0 1.417,0.634 1.417,1.416 0,0.783 -0.634,1.417 -1.417,1.417 h -5.135 v 3.677 c 0,3.532 2.065,6.59 5.051,8.031 V 7.703 c 0,-0.782 0.634,-1.417 1.416,-1.417 0.783,0 1.417,0.635 1.417,1.417 v 4.825 c 0.337,0.039 3.606,0.039 3.943,0 V 7.703 c 0,-0.782 0.634,-1.417 1.417,-1.417 0.782,0 1.416,0.635 1.416,1.417 v 4.005 C -2.065,10.267 0,7.209 0,3.677 Z M -8.912,15.422 H -10.8 c -6.476,0 -11.744,-5.269 -11.744,-11.745 v -19.591 c 0,-6.476 5.268,-11.745 11.744,-11.745 h 1.888 c 6.476,0 11.745,5.269 11.745,11.745 V 3.677 c 0,6.476 -5.269,11.745 -11.745,11.745"
       style="fill:#000000;fill-opacity:1;fill-rule:nonzero;stroke:none"
       transform="matrix(0.83240788,0,0,-0.83240788,67.6643,48.543598)"
       clip-path="url(#clipPath20)" />
  </g>
</svg>
